<svg xmlns="http://www.w3.org/2000/svg" viewBox="0 0 640 440" role="img" aria-label="yutoubing">
  <rect width="640" height="440" rx="34" fill="#fff7ed"/>
  <ellipse cx="320" cy="316" rx="236" ry="70" fill="#ead7bb"/>
  <ellipse cx="320" cy="293" rx="214" ry="62" fill="#fffaf0"/>
  <g filter="url(#shadow)">
    <ellipse cx="244" cy="220" rx="104" ry="82" fill="#d7b48d"/>
    <ellipse cx="244" cy="206" rx="92" ry="63" fill="#f1d2a7"/>
    <path d="M180 215c35 28 93 30 132 3" fill="none" stroke="#a16207" stroke-width="12" stroke-linecap="round"/>
    <ellipse cx="244" cy="204" rx="42" ry="28" fill="#c084fc" opacity=".88"/>
    <ellipse cx="398" cy="230" rx="112" ry="86" fill="#d3a979"/>
    <ellipse cx="398" cy="215" rx="98" ry="65" fill="#f0c58f"/>
    <path d="M329 224c40 31 105 33 146 2" fill="none" stroke="#92400e" stroke-width="13" stroke-linecap="round"/>
    <ellipse cx="399" cy="213" rx="44" ry="30" fill="#a855f7" opacity=".86"/>
  </g>
  <g fill="#fff7d6">
    <circle cx="206" cy="183" r="5"/><circle cx="274" cy="174" r="5"/><circle cx="315" cy="229" r="5"/>
    <circle cx="363" cy="189" r="5"/><circle cx="443" cy="191" r="5"/><circle cx="478" cy="246" r="5"/>
  </g>
  <g fill="#6d28d9" opacity=".18">
    <circle cx="120" cy="100" r="38"/><circle cx="524" cy="111" r="46"/>
  </g>
  <defs>
    <filter id="shadow" x="80" y="100" width="480" height="260" color-interpolation-filters="sRGB">
      <feDropShadow dx="0" dy="13" stdDeviation="13" flood-color="#92400e" flood-opacity=".18"/>
    </filter>
  </defs>
</svg>
